<svg width="23" height="22" viewBox="0 0 23 22" fill="none" xmlns="http://www.w3.org/2000/svg">
<path d="M9.83484 19.893H13.8348C13.8348 20.4234 13.6241 20.9321 13.2491 21.3072C12.874 21.6823 12.3653 21.893 11.8348 21.893C11.3044 21.893 10.7957 21.6823 10.4206 21.3072C10.0456 20.9321 9.83484 20.4234 9.83484 19.893ZM20.8348 17.893V18.893H2.83484V17.893L4.83484 15.893V9.89297C4.83484 6.79297 6.86484 4.06297 9.83484 3.18297C9.83484 3.08297 9.83484 2.99297 9.83484 2.89297C9.83484 2.36254 10.0456 1.85383 10.4206 1.47876C10.7957 1.10369 11.3044 0.892975 11.8348 0.892975C12.3653 0.892975 12.874 1.10369 13.2491 1.47876C13.6241 1.85383 13.8348 2.36254 13.8348 2.89297C13.8348 2.99297 13.8348 3.08297 13.8348 3.18297C16.8048 4.06297 18.8348 6.79297 18.8348 9.89297V15.893L20.8348 17.893ZM16.8348 9.89297C16.8348 8.56689 16.3081 7.29512 15.3704 6.35744C14.4327 5.41976 13.1609 4.89297 11.8348 4.89297C10.5088 4.89297 9.23699 5.41976 8.2993 6.35744C7.36162 7.29512 6.83484 8.56689 6.83484 9.89297V16.893H16.8348V9.89297ZM19.5848 2.08297L18.1648 3.50297C19.8748 5.19298 20.8348 7.49297 20.8348 9.89297H22.8348C22.8348 6.96297 21.6748 4.14297 19.5848 2.08297ZM0.834839 9.89297H2.83484C2.83484 7.49297 3.79484 5.19298 5.50484 3.50297L4.08484 2.08297C1.99484 4.14297 0.834839 6.96297 0.834839 9.89297Z" fill="#F5F5F5"/>
</svg>
